<?xml version="1.0" encoding="UTF-8" standalone="no"?>
<!-- Created with Inkscape (http://www.inkscape.org/) -->

<svg
   width="119.36274mm"
   height="27.963718mm"
   viewBox="0 0 119.363 27.963779"
   version="1.1"
   id="svg1"
   xmlns="http://www.w3.org/2000/svg"
   xmlns:svg="http://www.w3.org/2000/svg">
  <defs
     id="defs1" />
  <g
     id="layer1"
     transform="translate(-48.415133,-73.293152)">
    <path
       d="M 91.721533,101.14783 123.07466,88.057157 83.438835,73.293201 H 83.20474 Z"
       style="display:inline;opacity:1;fill:#70bdff;fill-opacity:1;stroke-width:0.600001;stroke-miterlimit:0.6"
       id="path86" />
    <path
       d="m 83.207324,73.300952 -26.257829,27.906308 0.01499,0.0496 h 34.790124 z"
       style="display:inline;opacity:1;fill:#b89eff;fill-opacity:1;stroke-width:0.600001;stroke-miterlimit:0.6"
       id="path91" />
    <path
       d="m 83.207324,73.300952 -0.0026,-0.0078 H 48.415133 l 8.534362,27.914058 z"
       style="opacity:1;fill:#8d70ff;fill-opacity:1;stroke-width:3.29999;stroke-linejoin:bevel;stroke-miterlimit:0.6;paint-order:markers stroke fill"
       id="path92" />
  </g>
  <text
     xml:space="preserve"
     style="font-weight:bold;font-size:17.3458px;font-family:Lato;-inkscape-font-specification:'Lato Bold';text-align:start;writing-mode:lr-tb;direction:ltr;text-anchor:start;display:inline;opacity:1;fill:#88ddaa;fill-opacity:1;stroke:none;stroke-width:0.600001;stroke-miterlimit:0.6"
     x="7.2996497"
     y="19.974062"
     id="text1"
     transform="scale(1.0024288,0.99757709)"><tspan
       id="tspan1"
       style="fill:#88ddaa;fill-opacity:1;stroke:none;stroke-width:0.600001"
       x="7.2996497"
       y="19.974062">MY AFFIRMS</tspan></text>
  <path
     d="M 74.659527,14.764005 110.02016,4.9e-5 H 35.023702 Z"
     style="opacity:0.674157;fill:#85d3ff;fill-opacity:1;stroke-width:3.29999;stroke-linejoin:bevel;stroke-miterlimit:0.6;paint-order:markers stroke fill"
     id="path88" />
  <path
     d="M 74.659527,14.764005 109.88167,27.883618 119.36274,13.827628 110.03618,4.9e-5 h -0.016 z"
     style="opacity:0.674157;fill:#5786ff;fill-opacity:1;stroke-width:3.29999;stroke-linejoin:bevel;stroke-miterlimit:0.6;paint-order:markers stroke fill"
     id="path89" />
  <path
     d="m 43.3064,27.854678 0.03307,0.10904 h 66.48794 l 0.0543,-0.0801 -35.222143,-13.119613 z"
     style="opacity:0.674157;fill:#57a2ff;fill-opacity:1;stroke-width:3.29999;stroke-linejoin:bevel;stroke-miterlimit:0.6;paint-order:markers stroke fill"
     id="path87" />
  <path
     style="font-weight:bold;font-size:17.3458px;font-family:Lato;-inkscape-font-specification:'Lato Bold';fill:#002952;fill-opacity:1;stroke-width:0.600001;stroke-miterlimit:0.6"
     d="m 111.12336,9.6904858 c -0.0638,0.1268938 -0.1391,0.2162966 -0.22604,0.2682086 -0.0812,0.051914 -0.17968,0.077871 -0.2956,0.077871 -0.11592,0 -0.24633,-0.043255 -0.39123,-0.1297474 -0.1449,-0.092286 -0.31587,-0.1932247 -0.51294,-0.3028155 -0.19707,-0.1095908 -0.4289,-0.2076457 -0.69551,-0.2941645 -0.26083,-0.092286 -0.57091,-0.1384298 -0.93026,-0.1384298 -0.32457,0 -0.60858,0.040372 -0.85201,0.1211258 -0.23764,0.074978 -0.4405,0.1816897 -0.60858,0.3201205 -0.16228,0.1384298 -0.284,0.3056995 -0.36514,0.5017779 -0.0812,0.190341 -0.12172,0.40087 -0.12172,0.631587 0,0.294165 0.0812,0.539301 0.24343,0.735411 0.16808,0.19611 0.38833,0.363379 0.66074,0.501809 0.27241,0.138431 0.58251,0.262441 0.93026,0.372032 0.34775,0.10959 0.70131,0.227832 1.06066,0.354727 0.36515,0.121127 0.72161,0.265325 1.06936,0.432594 0.34775,0.161502 0.65784,0.369148 0.93025,0.622936 0.27241,0.248021 0.48977,0.55372 0.65205,0.9171 0.16808,0.363379 0.25212,0.804626 0.25212,1.323739 0,0.565256 -0.0985,1.095905 -0.29559,1.591946 -0.19127,0.490275 -0.47526,0.919985 -0.85201,1.289132 -0.37095,0.363379 -0.82593,0.651775 -1.36495,0.865189 -0.53903,0.207645 -1.1563,0.311467 -1.85181,0.311467 -0.39992,0 -0.79406,-0.04037 -1.18239,-0.121126 -0.38833,-0.07498 -0.76216,-0.184573 -1.12151,-0.328772 -0.35356,-0.144198 -0.68683,-0.317235 -0.99982,-0.519113 -0.30718,-0.201877 -0.58249,-0.426826 -0.82592,-0.674847 l 0.67813,-1.116093 c 0.0637,-0.08075 0.1391,-0.147083 0.22604,-0.198994 0.0927,-0.05768 0.19417,-0.08652 0.30429,-0.08652 0.1449,0 0.30139,0.06056 0.46948,0.18169 0.16808,0.115359 0.36514,0.245137 0.59119,0.389335 0.23183,0.144198 0.50135,0.27686 0.80853,0.397987 0.31299,0.115358 0.68682,0.173037 1.12153,0.173037 0.66653,0 1.18237,-0.155733 1.54753,-0.467202 0.36514,-0.317235 0.54771,-0.770018 0.54771,-1.358346 0,-0.328771 -0.084,-0.59698 -0.25213,-0.804625 -0.16228,-0.207645 -0.37963,-0.380683 -0.65204,-0.519114 -0.27241,-0.144197 -0.5825,-0.265324 -0.93025,-0.363379 -0.34776,-0.09805 -0.70132,-0.204761 -1.06067,-0.32012 -0.35935,-0.115358 -0.71291,-0.253788 -1.06066,-0.41529 -0.34776,-0.161502 -0.65784,-0.372031 -0.93025,-0.631588 -0.27241,-0.259556 -0.49267,-0.58256 -0.66075,-0.969011 -0.16228,-0.392219 -0.24343,-0.873841 -0.24343,-1.444865 0,-0.455666 0.0898,-0.8997655 0.26952,-1.3323598 0.18547,-0.4325943 0.45208,-0.8161607 0.79984,-1.1507002 0.35355,-0.3345404 0.78536,-0.602749 1.2954,-0.8046257 0.51005,-0.2018777 1.09254,-0.3028165 1.74749,-0.3028165 0.74189,0 1.4258,0.1153588 2.05177,0.3460754 0.62597,0.2307177 1.1592,0.5537212 1.5997,0.9690115 z"
     id="path109" />
  <path
     style="font-weight:bold;font-size:17.3458px;font-family:Lato;-inkscape-font-specification:'Lato Bold';fill:#002952;fill-opacity:1;stroke-width:0.600001;stroke-miterlimit:0.6"
     d="m 94.526573,14.734535 c 0.09854,0.184574 0.188366,0.377799 0.269513,0.579677 0.08691,0.196109 0.170984,0.395102 0.252131,0.59698 0.0812,-0.207646 0.16518,-0.412407 0.25212,-0.614284 0.08691,-0.201878 0.179676,-0.395103 0.278204,-0.579676 l 3.721026,-6.9301612 c 0.04641,-0.08652 0.09273,-0.1557348 0.139097,-0.2076457 0.05223,-0.051914 0.10726,-0.089403 0.16519,-0.1124748 0.06376,-0.023074 0.133303,-0.037489 0.208656,-0.043255 0.07538,-0.00579 0.16518,-0.00868 0.26951,-0.00868 h 1.76488 V 19.925645 h -2.060473 v -8.08084 c 0,-0.149966 0.003,-0.314352 0.009,-0.493158 0.01163,-0.178805 0.02616,-0.360494 0.0435,-0.545068 l -3.799265,7.094547 c -0.08691,0.161502 -0.199965,0.288396 -0.339072,0.380683 -0.139097,0.08652 -0.30138,0.129778 -0.486859,0.129778 h -0.32167 c -0.185479,0 -0.347762,-0.04326 -0.486869,-0.129778 -0.139107,-0.09229 -0.252121,-0.219181 -0.339062,-0.380683 l -3.851432,-7.120503 c 0.02316,0.190342 0.03769,0.377799 0.04351,0.562373 0.01153,0.178805 0.01734,0.346075 0.01734,0.501809 v 8.080863 H 88.21511 V 7.4150394 h 1.764877 c 0.104322,0 0.19416,0.00289 0.269513,0.00868 0.07538,0.00579 0.141994,0.020201 0.199954,0.043255 0.06376,0.023074 0.121715,0.060563 0.173881,0.1124749 0.05223,0.051914 0.101456,0.1211288 0.147799,0.2076456 l 3.755789,6.9474641 z"
     id="path108" />
  <path
     style="font-weight:bold;font-size:17.3458px;font-family:Lato;-inkscape-font-specification:'Lato Bold';fill:#002952;fill-opacity:1;stroke-width:0.600001;stroke-miterlimit:0.6"
     d="m 79.242571,15.037351 v 4.888317 H 76.903894 V 7.4150394 h 3.83404 c 0.857808,0 1.590995,0.089403 2.199579,0.2682085 0.614369,0.1730378 1.115724,0.4181744 1.504055,0.7354099 0.394124,0.3172365 0.68102,0.6979189 0.860695,1.1420492 0.185479,0.4383623 0.278214,0.922869 0.278214,1.453517 0,0.421058 -0.06375,0.819045 -0.191273,1.193961 -0.121715,0.374914 -0.301391,0.715222 -0.539026,1.020922 -0.231832,0.305701 -0.521634,0.573909 -0.869397,0.804626 -0.341958,0.230717 -0.733186,0.41529 -1.173684,0.55372 0.295597,0.16727 0.550624,0.406638 0.765074,0.718107 l 3.147215,4.620108 h -2.103947 c -0.202862,0 -0.376733,-0.04037 -0.521634,-0.121127 -0.139107,-0.08075 -0.257925,-0.19611 -0.356454,-0.346076 l -2.642963,-4.005823 c -0.09854,-0.149966 -0.208656,-0.256673 -0.330371,-0.32012 -0.115921,-0.06345 -0.289802,-0.09517 -0.521634,-0.09517 z m 0,-1.669814 h 1.460589 c 0.440497,0 0.823024,-0.0548 1.1476,-0.164386 0.330371,-0.109591 0.599884,-0.259556 0.808539,-0.449898 0.21445,-0.196109 0.373846,-0.426826 0.478169,-0.692151 0.104323,-0.265325 0.156489,-0.556604 0.156489,-0.873841 0,-0.634472 -0.211553,-1.121861 -0.634658,-1.4621683 C 82.241988,9.3847853 81.601536,9.2146315 80.737934,9.2146315 h -1.495363 z"
     id="path107" />
  <path
     style="font-weight:bold;font-size:17.3458px;font-family:Lato;-inkscape-font-specification:'Lato Bold';fill:#002952;fill-opacity:1;stroke-width:0.600001;stroke-miterlimit:0.6"
     d="M 74.000129,19.925668 H 71.652761 V 7.4150394 h 2.347368 z"
     id="path106" />
  <path
     style="font-weight:bold;font-size:17.3458px;font-family:Lato;-inkscape-font-specification:'Lato Bold';fill:#002952;fill-opacity:1;stroke-width:0.600001;stroke-miterlimit:0.6"
     d="m 69.531422,7.4150394 v 1.851504 h -5.572833 v 3.7030076 h 4.703436 v 1.860155 h -4.703436 v 5.095962 H 61.60253 V 7.4150394 Z"
     id="path105" />
  <path
     style="font-weight:bold;font-size:17.3458px;font-family:Lato;-inkscape-font-specification:'Lato Bold';fill:#002952;fill-opacity:1;stroke-width:0.600001;stroke-miterlimit:0.6"
     d="m 59.768086,7.4150394 v 1.851504 h -5.572833 v 3.7030076 h 4.703436 v 1.860155 h -4.703436 v 5.095962 H 51.839195 V 7.4150394 Z"
     id="path104" />
  <path
     style="font-weight:bold;font-size:17.3458px;font-family:Lato;-inkscape-font-specification:'Lato Bold';fill:#002952;fill-opacity:1;stroke-width:0.600001;stroke-miterlimit:0.6"
     d="m 50.543808,19.925668 h -1.808344 c -0.20286,0 -0.370943,-0.04903 -0.504251,-0.147083 -0.127511,-0.103823 -0.220247,-0.230717 -0.278206,-0.380683 l -0.938949,-2.552307 h -5.207685 l -0.938948,2.552307 c -0.04636,0.132662 -0.139101,0.253788 -0.278207,0.363379 -0.133308,0.109591 -0.298493,0.164387 -0.495556,0.164387 H 38.276624 L 43.214796,7.4150394 h 2.39084 z m -8.137551,-4.723931 h 4.007917 L 44.884037,11.04018 c -0.06955,-0.184574 -0.147798,-0.400871 -0.234738,-0.648891 -0.08115,-0.253789 -0.162287,-0.5277655 -0.243431,-0.82193 -0.08115,0.2941645 -0.162287,0.568141 -0.24343,0.82193 -0.07534,0.253788 -0.150696,0.475853 -0.226043,0.666195 z"
     id="path103" />
  <path
     style="font-weight:bold;font-size:17.3458px;font-family:Lato;-inkscape-font-specification:'Lato Bold';stroke-width:0.600001;stroke-miterlimit:0.6"
     d="m 30.347698,15.063307 v 4.862361 H 28.00902 V 15.063307 L 23.427301,7.4150394 h 2.060469 c 0.20286,0 0.362249,0.049031 0.478169,0.1470817 0.121716,0.098052 0.223145,0.2220647 0.304288,0.3720314 l 2.303901,4.1788615 c 0.133308,0.248021 0.249227,0.484505 0.347759,0.709455 0.09853,0.21918 0.188369,0.435478 0.269513,0.648891 0.07534,-0.219181 0.159389,-0.438362 0.252125,-0.657543 0.09853,-0.224949 0.214451,-0.45855 0.347759,-0.700803 l 2.286513,-4.1788615 c 0.06375,-0.1268947 0.159388,-0.2451366 0.2869,-0.3547274 0.127512,-0.1095908 0.289799,-0.1643857 0.486862,-0.1643857 h 2.069164 z"
     id="path102" />
  <path
     style="font-weight:bold;font-size:17.3458px;font-family:Lato;-inkscape-font-specification:'Lato Bold';stroke-width:0.600001;stroke-miterlimit:0.6"
     d="m 14.898517,14.734535 c 0.09853,0.184574 0.188369,0.377799 0.269513,0.579677 0.08694,0.196109 0.170981,0.395102 0.252124,0.59698 0.08115,-0.207646 0.165186,-0.412407 0.252125,-0.614284 0.08694,-0.201878 0.179676,-0.395103 0.278207,-0.579676 l 3.721017,-6.9301612 c 0.04636,-0.08652 0.09273,-0.1557348 0.139104,-0.2076457 0.05217,-0.051914 0.107228,-0.089403 0.165185,-0.1124748 0.06376,-0.023074 0.133306,-0.037489 0.208655,-0.043255 0.07534,-0.00579 0.165185,-0.00868 0.269513,-0.00868 h 1.764875 V 19.925668 h -2.060469 v -8.080863 c 0,-0.149966 0.0029,-0.314352 0.0087,-0.493158 0.0116,-0.178805 0.02608,-0.360494 0.04348,-0.545068 L 16.4113,17.901126 c -0.08694,0.161502 -0.199962,0.288396 -0.339066,0.380683 -0.139103,0.08652 -0.30139,0.129778 -0.486861,0.129778 h -0.321677 c -0.185471,0 -0.347758,-0.04326 -0.486862,-0.129778 -0.139103,-0.09229 -0.252125,-0.219181 -0.339065,-0.380683 l -3.851426,-7.120503 c 0.02319,0.190342 0.03767,0.377799 0.04348,0.562373 0.0116,0.178805 0.01739,0.346075 0.01739,0.501809 v 8.080863 H 8.5866976 V 7.4150394 h 1.7648754 c 0.104328,0 0.194165,0.00289 0.269513,0.00868 0.07534,0.00579 0.142002,0.020201 0.199961,0.043255 0.06376,0.023074 0.121714,0.060563 0.17388,0.1124749 0.05217,0.051914 0.101431,0.1211288 0.147797,0.2076456 l 3.755793,6.9474641 z"
     id="text92" />
</svg>
