<?xml version="1.0" encoding="UTF-8" standalone="no"?>
<!-- Created with Inkscape (http://www.inkscape.org/) -->

<svg
   width="101.0884mm"
   height="30.550232mm"
   viewBox="0 0 101.08862 30.550298"
   version="1.1"
   id="svg1"
   xmlns="http://www.w3.org/2000/svg"
   xmlns:svg="http://www.w3.org/2000/svg">
  <defs
     id="defs1" />
  <g
     id="layer1"
     transform="matrix(1.0301025,0,0,1.0457257,-49.87255,-75.103185)"
     style="stroke-width:0.963506">
    <g
       id="g9"
       style="display:none;opacity:1">
      <path
         d="M 91.721533,97.253551 123.07466,87.221139 83.438835,75.90636 H 83.20474 Z"
         style="display:inline;opacity:1;fill:#70bdff;fill-opacity:1;stroke-width:0.578101;stroke-miterlimit:0.6"
         id="path86" />
      <path
         d="m 123.07466,87.221139 35.36063,-11.31478 H 83.438835 Z"
         style="display:inline;opacity:1;fill:#85d3ff;fill-opacity:1;stroke-width:3.17953;stroke-linejoin:bevel;stroke-miterlimit:0.6;paint-order:markers stroke fill"
         id="path88" />
      <path
         d="m 123.07466,87.221139 35.22214,10.054586 7.26136,-10.772206 -7.10685,-10.59716 h -0.016 z"
         style="display:inline;opacity:1;fill:#5786ff;fill-opacity:1;stroke-width:3.17953;stroke-linejoin:bevel;stroke-miterlimit:0.6;paint-order:markers stroke fill"
         id="path89" />
      <path
         d="m 91.721533,97.253551 0.03307,0.08361 h 66.487937 l 0.0543,-0.06137 -35.22214,-10.054586 z"
         style="display:inline;opacity:1;fill:#57a2ff;fill-opacity:1;stroke-width:3.17953;stroke-linejoin:bevel;stroke-miterlimit:0.6;paint-order:markers stroke fill"
         id="path87" />
    </g>
    <g
       id="g8"
       style="display:inline">
      <path
         d="M 83.207324,75.912299 56.949495,97.2991 l 0.01499,0.03804 h 34.790124 z"
         style="display:inline;opacity:1;fill:#e0feea;fill-opacity:1;stroke-width:0.578101;stroke-miterlimit:0.6"
         id="path91" />
      <path
         d="m 83.207324,75.912299 -0.0026,-0.006 H 48.415133 l 8.534362,21.392735 z"
         style="display:inline;opacity:1;fill:#cbfce6;fill-opacity:1;stroke-width:3.17953;stroke-linejoin:bevel;stroke-miterlimit:0.6;paint-order:markers stroke fill"
         id="path92" />
    </g>
    <path
       id="path61"
       style="display:inline;opacity:1;fill:#e0fdf7;fill-opacity:1;stroke:#000000;stroke-width:0;stroke-linejoin:bevel;stroke-miterlimit:0.6;paint-order:markers stroke fill"
       d="M 146.54916,86.572525 83.195505,75.905882 h -0.01505 l 30.842305,11.590739 9.56523,3.594587 22.93157,-4.468278 0.0301,-0.04942 z M 91.90339,97.265358 114.02276,87.496621 83.180455,75.905882 h -0.0065 l 8.555881,21.39308 z m 31.6846,-6.17415 -9.56523,-3.594587 -22.11937,9.768737 z" />
    <path
       d="m 146.54916,86.572525 -6.31094,-10.6533 -0.009,-0.01334 H 83.195505 Z"
       style="display:inline;opacity:1;fill:#f4fef6;fill-opacity:1;stroke:#000000;stroke-width:0;stroke-linejoin:bevel;stroke-miterlimit:0.6;paint-order:markers stroke fill"
       id="path62" />
    <path
       id="path27"
       style="display:inline;opacity:1;fill:#cbfce6;fill-opacity:1;stroke:#000000;stroke-width:0;stroke-linejoin:bevel;stroke-miterlimit:0.6;paint-order:markers stroke fill"
       d="m 146.51956,86.62293 -22.93157,4.468278 -31.6846,6.17415 -0.132439,0.05831 h 48.225469 l 0.0286,-0.05535 z" />
    <path
       d="m 146.51956,86.62293 -6.49454,10.645393 -0.0286,0.05535 h -48.225469 -0.0311 l -0.01003,-0.02471 -4.425179,0.862325 8.884973,44.244942 84.136095,-16.39406 -8.88497,-44.24544 z"
       style="display:none;opacity:1;fill:#4271ff;stroke:#000000;stroke-width:0;stroke-linejoin:bevel;stroke-miterlimit:0.6;paint-order:markers stroke fill"
       id="path24" />
  </g>
  <path
     d="m 60.533387,8.8975639 c -0.759273,0 -1.417113,0.098447 -1.973528,0.2945563 -0.556413,0.1903415 -1.0172,0.4555112 -1.382347,0.7958188 -0.365147,0.340308 -0.637848,0.744096 -0.817523,1.211298 -0.179675,0.461434 -0.269235,0.963153 -0.269235,1.505338 V 12.98983 H 54.7606 v 0.87385 c 0,0.155735 0.04926,0.277285 0.147795,0.363803 0.104327,0.08652 0.240161,0.143763 0.408244,0.1726 l 0.774115,0.12144 v 7.267272 h 2.147161 v -7.276057 h 3.312466 v 7.276057 h 2.14716 V 12.98983 h -5.52939 v -0.216008 c 0,-0.386451 0.04926,-0.723947 0.147795,-1.012344 0.104328,-0.294164 0.272524,-0.536231 0.504363,-0.726572 0.237635,-0.19611 0.545169,-0.343264 0.92191,-0.441318 0.382534,-0.09806 0.854761,-0.147278 1.416971,-0.147278 0.197063,0 0.36227,-0.01155 0.495578,-0.03462 0.133304,-0.02884 0.205446,-0.109701 0.217041,-0.242363 l 0.06976,-1.1074284 c -0.185468,-0.057679 -0.405917,-0.097851 -0.66094,-0.1209234 -0.255023,-0.02884 -0.503811,-0.043408 -0.747242,-0.043408 z m -7.207328,0.1643314 c -0.515842,0 -0.979618,0.075344 -1.391133,0.2253097 -0.411514,0.149966 -0.762335,0.3659124 -1.052134,0.6485406 -0.284003,0.2826284 -0.503935,0.6261594 -0.660426,1.0299134 -0.150696,0.403755 -0.226344,0.859268 -0.226344,1.366845 v 0.657326 h -1.330154 v 0.87385 c 0,0.155735 0.04926,0.277285 0.147795,0.363803 0.104328,0.08652 0.240678,0.143763 0.408762,0.1726 l 0.773597,0.12144 v 7.267272 H 52.1437 v -7.276057 h 2.251547 V 12.98983 h -2.321311 v -0.588079 c 0,-0.328772 0.03484,-0.602993 0.104387,-0.822174 0.07535,-0.224949 0.182325,-0.403741 0.321428,-0.536403 0.139104,-0.13843 0.3073,-0.233343 0.504363,-0.285254 0.202859,-0.05768 0.431758,-0.08682 0.686781,-0.08682 0.191267,0 0.359464,-0.02009 0.504363,-0.06046 0.144897,-0.04037 0.223017,-0.143823 0.234612,-0.311093 L 54.47328,9.2262259 C 54.119724,9.1166361 53.737573,9.0618953 53.326059,9.0618953 Z M 8.5865742,9.27842 v 12.510375 h 2.0603428 v -8.080661 c 0,-0.155734 -0.0055,-0.322974 -0.01705,-0.501779 -0.0058,-0.184574 -0.02022,-0.3719 -0.04341,-0.562241 l 3.851453,7.120511 c 0.08694,0.161502 0.199894,0.288053 0.338998,0.380339 0.139104,0.08652 0.301322,0.130225 0.486793,0.130225 h 0.321428 c 0.185471,0 0.348207,-0.04371 0.48731,-0.130225 0.139104,-0.09229 0.252059,-0.218837 0.338998,-0.380339 l 3.79926,-7.094673 c -0.01738,0.184574 -0.03181,0.366382 -0.04341,0.545188 -0.0058,0.178805 -0.0088,0.343028 -0.0088,0.492994 v 8.080661 h 2.060344 V 9.27842 h -1.764754 c -0.104327,0 -0.194404,0.00302 -0.269751,0.00879 -0.07535,0.00577 -0.145019,0.01982 -0.208774,0.042891 -0.05796,0.023072 -0.112681,0.060744 -0.164848,0.1126549 -0.04637,0.051911 -0.09264,0.1212209 -0.13901,0.2077397 l -3.721213,6.9303374 c -0.09853,0.184574 -0.19108,0.377417 -0.27802,0.579294 -0.08694,0.201878 -0.171038,0.406789 -0.252181,0.614434 -0.08114,-0.201877 -0.165242,-0.400754 -0.252182,-0.596864 -0.08114,-0.201877 -0.17122,-0.395237 -0.269751,-0.579811 L 11.142496,9.6504911 c -0.04637,-0.086519 -0.09563,-0.1558284 -0.147795,-0.2077397 -0.05217,-0.051911 -0.109879,-0.089583 -0.173634,-0.1126549 -0.05796,-0.023074 -0.124641,-0.037126 -0.199988,-0.042891 -0.07535,-0.00577 -0.165424,-0.00879 -0.269751,-0.00879 z m 32.5241828,0 -4.93821,12.510375 h 1.816947 c 0.197064,0 0.362271,-0.05474 0.495578,-0.164331 0.139106,-0.109591 0.232171,-0.230624 0.278537,-0.363286 l 0.938963,-2.552305 h 5.207445 l 0.938963,2.552305 c 0.05796,0.149965 0.151025,0.277033 0.278536,0.380856 0.133307,0.09805 0.300987,0.146761 0.503847,0.146761 h 1.808679 L 43.501831,9.27842 Z m 1.191145,2.154395 c 0.08114,0.294164 0.162252,0.567869 0.243396,0.821658 0.08694,0.248021 0.16506,0.464484 0.234612,0.649057 l 1.530142,4.161512 h -4.007516 l 1.530143,-4.144459 c 0.07535,-0.190341 0.150479,-0.412321 0.225826,-0.66611 0.08114,-0.253789 0.162253,-0.527494 0.243397,-0.821658 z m 28.446904,1.315169 c -0.53323,0 -1.014423,0.158188 -1.443326,0.475424 -0.428902,0.317235 -0.803119,0.750161 -1.121898,1.298115 l -0.130225,-1.072805 c -0.02898,-0.196109 -0.08669,-0.334729 -0.173633,-0.41548 -0.08694,-0.08075 -0.240708,-0.120923 -0.460955,-0.120923 h -1.26039 v 8.87648 h 2.14716 v -5.528357 c 0.220247,-0.47297 0.489959,-0.830552 0.808738,-1.072805 0.318778,-0.248021 0.700929,-0.372071 1.147219,-0.372071 0.249227,0 0.449269,0.02009 0.599965,0.06046 0.150695,0.04038 0.269628,0.06046 0.356568,0.06046 0.09853,0 0.176651,-0.02009 0.234612,-0.06046 0.05796,-0.04614 0.09578,-0.12097 0.113171,-0.224793 l 0.27802,-1.600423 C 71.554033,12.848928 71.1893,12.747982 70.748806,12.747982 Z m 6.911221,0.02584 c -0.266615,0 -0.512931,0.03164 -0.738974,0.09508 -0.220247,0.05768 -0.42874,0.13854 -0.625803,0.242363 -0.191267,0.103822 -0.373893,0.227872 -0.547772,0.372071 -0.168084,0.144198 -0.330302,0.302903 -0.486793,0.475941 l -0.13901,-0.657843 c -0.08694,-0.259557 -0.269564,-0.389124 -0.547771,-0.389124 H 73.26132 v 8.87648 h 2.14716 v -6.497289 c 0.231839,-0.265324 0.481144,-0.473253 0.74776,-0.623219 0.27241,-0.155734 0.562012,-0.233578 0.869199,-0.233578 0.469474,0 0.823284,0.135602 1.06092,0.406694 0.24343,0.271093 0.364836,0.704019 0.364836,1.298115 v 5.64928 h 2.156462 v -5.64928 c 0,-0.27686 0.0403,-0.521944 0.12144,-0.735357 0.08114,-0.213414 0.191626,-0.389705 0.33073,-0.528134 0.144899,-0.144199 0.310107,-0.25368 0.495578,-0.328663 0.191267,-0.07498 0.396771,-0.112655 0.617018,-0.112655 0.481066,0 0.846316,0.144653 1.095543,0.433049 0.249227,0.282629 0.373621,0.706504 0.373621,1.27176 v 5.64928 h 2.147677 v -5.64928 c 0,-0.536417 -0.06967,-1.012533 -0.208773,-1.427823 -0.133308,-0.41529 -0.33036,-0.766839 -0.59118,-1.055235 -0.260818,-0.288396 -0.582266,-0.507876 -0.964801,-0.657842 -0.382535,-0.149966 -0.820443,-0.224793 -1.313101,-0.224793 -0.284003,0 -0.568143,0.03164 -0.852146,0.09508 -0.278207,0.06345 -0.541941,0.161377 -0.791168,0.294039 -0.249226,0.132663 -0.478126,0.305937 -0.686781,0.51935 -0.208655,0.207645 -0.382313,0.458246 -0.521416,0.75241 -0.179676,-0.50181 -0.452377,-0.902582 -0.817523,-1.202513 -0.359351,-0.3057 -0.820138,-0.458371 -1.382348,-0.458371 z m 13.084501,0 c -0.550617,0 -1.037272,0.07483 -1.460379,0.224793 -0.41731,0.144198 -0.768132,0.340575 -1.052134,0.588596 -0.278207,0.242252 -0.489689,0.527508 -0.634588,0.85628 -0.144899,0.328772 -0.217042,0.674802 -0.217042,1.038182 0,0.392219 0.0607,0.726698 0.182418,1.003558 0.127512,0.276861 0.29272,0.510393 0.495578,0.700734 0.208656,0.190342 0.443533,0.349047 0.704352,0.475941 0.266614,0.121126 0.53581,0.228108 0.808221,0.320395 0.278207,0.09229 0.547919,0.178665 0.808738,0.259416 0.266615,0.07498 0.500975,0.161362 0.703834,0.259416 0.208656,0.09806 0.373863,0.213571 0.495578,0.346233 0.127511,0.132663 0.19172,0.302919 0.19172,0.510564 0,0.138431 -0.02937,0.274033 -0.08733,0.406695 -0.05216,0.126894 -0.138734,0.239393 -0.26045,0.337448 -0.115919,0.09806 -0.266699,0.1784 -0.45217,0.241846 -0.179675,0.05768 -0.397134,0.08682 -0.652158,0.08682 -0.324574,0 -0.594286,-0.03767 -0.808737,-0.112655 -0.208655,-0.07498 -0.391281,-0.155845 -0.547772,-0.242363 -0.156492,-0.08652 -0.295315,-0.166864 -0.41703,-0.241847 -0.115919,-0.07498 -0.24083,-0.112654 -0.374138,-0.112654 -0.133307,0 -0.243274,0.02612 -0.330213,0.07803 -0.08694,0.05191 -0.162072,0.126739 -0.225826,0.224793 l -0.495578,0.813389 c 0.173879,0.155734 0.373921,0.29987 0.599964,0.432533 0.231839,0.132662 0.481145,0.248178 0.74776,0.346232 0.272411,0.09805 0.553046,0.172879 0.842844,0.224793 0.295595,0.05768 0.597154,0.0863 0.90434,0.0863 0.573801,0 1.080863,-0.07181 1.521357,-0.216008 0.44629,-0.149966 0.820507,-0.354878 1.121898,-0.614434 0.301391,-0.265324 0.53029,-0.5767 0.686781,-0.934312 0.156492,-0.363379 0.234612,-0.758633 0.234612,-1.18546 0,-0.35761 -0.06369,-0.663469 -0.191203,-0.917258 -0.121716,-0.253789 -0.286923,-0.469735 -0.495578,-0.648541 -0.202859,-0.184573 -0.434747,-0.334744 -0.695567,-0.450103 -0.260818,-0.121126 -0.527541,-0.22759 -0.799953,-0.319878 -0.27241,-0.09229 -0.539134,-0.176164 -0.799952,-0.251148 -0.26082,-0.08075 -0.49518,-0.170146 -0.703835,-0.268201 -0.20286,-0.09805 -0.368066,-0.210553 -0.495578,-0.337448 -0.121715,-0.132661 -0.182935,-0.293867 -0.182935,-0.484209 0,-0.288396 0.121923,-0.521928 0.365353,-0.700734 0.243431,-0.178806 0.576835,-0.268718 0.999941,-0.268718 0.272411,0 0.506771,0.02914 0.703835,0.08682 0.202859,0.05768 0.382494,0.123971 0.538986,0.198954 0.156491,0.06921 0.292842,0.13249 0.408762,0.19017 0.121715,0.05768 0.23467,0.08682 0.338998,0.08682 0.09853,0 0.179642,-0.01758 0.243396,-0.05219 0.06376,-0.04038 0.124975,-0.106667 0.182935,-0.198954 l 0.486793,-0.769981 C 93.347209,13.543708 92.926718,13.278538 92.422469,13.07666 91.918219,12.874783 91.358905,12.773836 90.744531,12.773836 Z M 23.549,12.912317 l 3.608057,8.219154 -1.669153,3.555863 h 1.599389 c 0.208655,0 0.362423,-0.04017 0.460955,-0.120923 0.104329,-0.07498 0.188427,-0.187482 0.252182,-0.337447 l 4.859662,-11.316647 h -1.721346 c -0.133307,0 -0.254713,0.03716 -0.364836,0.112138 -0.10433,0.07498 -0.179978,0.170413 -0.226343,0.285771 l -1.790593,4.594045 c -0.06376,0.161502 -0.124974,0.320207 -0.182935,0.475941 -0.05217,0.155735 -0.101429,0.317456 -0.147795,0.484726 -0.03478,-0.161502 -0.07507,-0.323224 -0.121439,-0.484726 -0.04637,-0.161502 -0.101611,-0.31719 -0.165365,-0.467156 l -1.903764,-4.60283 c -0.04637,-0.103822 -0.116037,-0.196235 -0.208774,-0.276986 -0.09274,-0.08075 -0.226097,-0.120923 -0.399976,-0.120923 z"
     style="-inkscape-font-specification:'Lato Bold';display:none;stroke-width:0.600001;stroke-miterlimit:0.6"
     id="path8" />
  <g
     id="g7"
     style="display:none"
     transform="translate(-2.9398217,1.8633526)">
    <path
       style="font-weight:bold;font-size:17.3458px;font-family:Lato;-inkscape-font-specification:'Lato Bold';display:inline;fill:#002952;fill-opacity:1;stroke-width:0.600001;stroke-miterlimit:0.6"
       d="m 111.12336,9.6904858 c -0.0638,0.1268938 -0.1391,0.2162966 -0.22604,0.2682086 -0.0812,0.051914 -0.17968,0.077871 -0.2956,0.077871 -0.11592,0 -0.24633,-0.043255 -0.39123,-0.1297402 -0.1449,-0.092286 -0.31587,-0.1932247 -0.51294,-0.3028155 -0.19707,-0.1095908 -0.4289,-0.2076457 -0.69551,-0.2941645 -0.26083,-0.092286 -0.57091,-0.1384298 -0.93026,-0.1384298 -0.32457,0 -0.60858,0.040372 -0.85201,0.1211258 -0.23764,0.074978 -0.4405,0.1816897 -0.60858,0.3201205 -0.16228,0.1384298 -0.284,0.3056995 -0.36514,0.5017707 -0.0812,0.190341 -0.12172,0.40087 -0.12172,0.631587 0,0.294165 0.0812,0.539301 0.24343,0.735411 0.16808,0.19611 0.38833,0.363379 0.66074,0.501809 0.27241,0.138431 0.58251,0.262441 0.93026,0.372032 0.34775,0.10959 0.70131,0.227832 1.06066,0.354727 0.36515,0.121127 0.72161,0.265325 1.06936,0.432594 0.34775,0.161502 0.65784,0.369148 0.93025,0.622936 0.27241,0.248021 0.48977,0.55372 0.65205,0.9171 0.16808,0.363379 0.25212,0.804626 0.25212,1.323739 0,0.565256 -0.0985,1.095905 -0.29559,1.591946 -0.19127,0.490275 -0.47526,0.919985 -0.85201,1.289132 -0.37095,0.363379 -0.82593,0.651775 -1.36495,0.865189 -0.53903,0.207645 -1.1563,0.311467 -1.85181,0.311467 -0.39992,0 -0.79406,-0.04037 -1.18239,-0.121126 -0.38833,-0.07498 -0.76216,-0.184573 -1.12151,-0.328772 -0.35356,-0.144198 -0.68683,-0.317235 -0.99982,-0.519113 -0.30718,-0.201877 -0.58249,-0.426826 -0.82592,-0.674847 l 0.67813,-1.116093 c 0.0637,-0.08075 0.1391,-0.147083 0.22604,-0.198994 0.0927,-0.05768 0.19417,-0.08652 0.30429,-0.08652 0.1449,0 0.30139,0.06056 0.46948,0.18169 0.16808,0.115359 0.36514,0.245137 0.59119,0.389335 0.23183,0.144198 0.50135,0.27686 0.80853,0.397987 0.31299,0.115358 0.68682,0.173037 1.12153,0.173037 0.66653,0 1.18237,-0.155733 1.54753,-0.467202 0.36514,-0.317235 0.54771,-0.770018 0.54771,-1.358346 0,-0.328771 -0.084,-0.59698 -0.25213,-0.804625 -0.16228,-0.207645 -0.37963,-0.380683 -0.65204,-0.519114 -0.27241,-0.144197 -0.5825,-0.265324 -0.93025,-0.363379 -0.34776,-0.09805 -0.70132,-0.204761 -1.06067,-0.32012 -0.35935,-0.115358 -0.71291,-0.253788 -1.06066,-0.41529 -0.34776,-0.161502 -0.65784,-0.372031 -0.93025,-0.631588 -0.27241,-0.259556 -0.49267,-0.58256 -0.66075,-0.969011 -0.16228,-0.392219 -0.24343,-0.873841 -0.24343,-1.444865 0,-0.455666 0.0898,-0.8997583 0.26952,-1.3323526 0.18547,-0.4325943 0.45208,-0.8161607 0.79984,-1.1507002 0.35355,-0.3345404 0.78536,-0.602749 1.2954,-0.8046257 0.51005,-0.2018777 1.09254,-0.3028165 1.74749,-0.3028165 0.74189,0 1.4258,0.1153588 2.05177,0.3460754 0.62597,0.2307177 1.1592,0.5537212 1.5997,0.9690115 z"
       id="path109" />
    <path
       style="font-weight:bold;font-size:17.3458px;font-family:Lato;-inkscape-font-specification:'Lato Bold';display:inline;fill:#002952;fill-opacity:1;stroke-width:0.600001;stroke-miterlimit:0.6"
       d="m 94.526573,14.734535 c 0.09854,0.184574 0.188366,0.377799 0.269513,0.579677 0.08691,0.196109 0.170984,0.395102 0.252131,0.59698 0.0812,-0.207646 0.16518,-0.412407 0.25212,-0.614284 0.08691,-0.201878 0.179676,-0.395103 0.278204,-0.579676 l 3.721026,-6.9301612 c 0.04641,-0.08652 0.09273,-0.1557348 0.139097,-0.2076457 0.05223,-0.051914 0.10726,-0.089403 0.16519,-0.1124748 0.06376,-0.023074 0.133303,-0.037489 0.208656,-0.043255 0.07538,-0.00579 0.16518,-0.00868 0.26951,-0.00868 h 1.76488 V 19.925645 h -2.060473 v -8.08084 c 0,-0.149966 0.003,-0.314352 0.009,-0.493158 0.01163,-0.178805 0.02616,-0.360494 0.0435,-0.545068 l -3.799265,7.094547 c -0.08691,0.161502 -0.199965,0.288396 -0.339072,0.380683 -0.139097,0.08652 -0.30138,0.129778 -0.486859,0.129778 h -0.32167 c -0.185479,0 -0.347762,-0.04326 -0.486869,-0.129778 -0.139107,-0.09229 -0.252121,-0.219181 -0.339062,-0.380683 l -3.851432,-7.120503 c 0.02316,0.190342 0.03769,0.377799 0.04351,0.562373 0.01153,0.178805 0.01734,0.346075 0.01734,0.501809 v 8.080863 H 88.21511 V 7.4150394 h 1.764877 c 0.104322,0 0.19416,0.00289 0.269513,0.00868 0.07538,0.00579 0.141994,0.020201 0.199954,0.043255 0.06376,0.023074 0.121715,0.060563 0.173881,0.1124749 0.05223,0.051914 0.101456,0.1211288 0.147799,0.2076456 l 3.755789,6.9474641 z"
       id="path108" />
    <path
       style="font-weight:bold;font-size:17.3458px;font-family:Lato;-inkscape-font-specification:'Lato Bold';display:inline;fill:#002952;fill-opacity:1;stroke-width:0.600001;stroke-miterlimit:0.6"
       d="m 79.242571,15.037351 v 4.888317 H 76.903894 V 7.4150394 h 3.83404 c 0.857808,0 1.590995,0.089403 2.199579,0.2682085 0.614369,0.1730378 1.115724,0.4181744 1.504055,0.7354099 0.394124,0.3172365 0.68102,0.6979189 0.860695,1.1420492 0.185479,0.4383623 0.278214,0.922869 0.278214,1.453517 0,0.421058 -0.06375,0.819045 -0.191273,1.193961 -0.121715,0.374914 -0.301391,0.715222 -0.539026,1.020922 -0.231832,0.305701 -0.521634,0.573909 -0.869397,0.804626 -0.341958,0.230717 -0.733186,0.41529 -1.173684,0.55372 0.295597,0.16727 0.550624,0.406638 0.765074,0.718107 l 3.147215,4.620108 h -2.103947 c -0.202862,0 -0.376733,-0.04037 -0.521634,-0.121127 -0.139107,-0.08075 -0.257925,-0.19611 -0.356454,-0.346076 l -2.642963,-4.005823 c -0.09854,-0.149966 -0.208656,-0.256673 -0.330371,-0.32012 -0.115921,-0.06345 -0.289802,-0.09517 -0.521634,-0.09517 z m 0,-1.669814 h 1.460589 c 0.440497,0 0.823024,-0.0548 1.1476,-0.164386 0.330371,-0.109591 0.599884,-0.259556 0.808539,-0.449898 0.21445,-0.196109 0.373846,-0.426826 0.478169,-0.692151 0.104323,-0.265325 0.156489,-0.556604 0.156489,-0.873841 0,-0.634472 -0.211553,-1.121861 -0.634658,-1.4621683 C 82.241988,9.3847853 81.601536,9.2146315 80.737934,9.2146315 h -1.495363 z"
       id="path107" />
    <path
       style="font-weight:bold;font-size:17.3458px;font-family:Lato;-inkscape-font-specification:'Lato Bold';fill:#002952;fill-opacity:1;stroke-width:0.600001;stroke-miterlimit:0.6"
       d="M 74.000129,19.925668 H 71.652761 V 7.4150394 h 2.347368 z"
       id="path106" />
    <path
       style="font-weight:bold;font-size:17.3458px;font-family:Lato;-inkscape-font-specification:'Lato Bold';fill:#002952;fill-opacity:1;stroke-width:0.600001;stroke-miterlimit:0.6"
       d="m 69.531422,7.4150394 v 1.851504 h -5.572833 v 3.7030076 h 4.703436 v 1.860155 h -4.703436 v 5.095962 H 61.60253 V 7.4150394 Z"
       id="path105" />
    <path
       style="font-weight:bold;font-size:17.3458px;font-family:Lato;-inkscape-font-specification:'Lato Bold';fill:#002952;fill-opacity:1;stroke-width:0.600001;stroke-miterlimit:0.6"
       d="m 59.768086,7.4150394 v 1.851504 h -5.572833 v 3.7030076 h 4.703436 v 1.860155 h -4.703436 v 5.095962 H 51.839195 V 7.4150394 Z"
       id="path104" />
    <path
       style="font-weight:bold;font-size:17.3458px;font-family:Lato;-inkscape-font-specification:'Lato Bold';fill:#002952;fill-opacity:1;stroke-width:0.600001;stroke-miterlimit:0.6"
       d="m 50.543808,19.925668 h -1.808344 c -0.20286,0 -0.370943,-0.04903 -0.504251,-0.147083 -0.127511,-0.103823 -0.220247,-0.230717 -0.278206,-0.380683 l -0.938949,-2.552307 h -5.207685 l -0.938948,2.552307 c -0.04636,0.132662 -0.139101,0.253788 -0.278207,0.363379 -0.133308,0.109591 -0.298493,0.164387 -0.495556,0.164387 H 38.276624 L 43.214796,7.4150394 h 2.39084 z m -8.137551,-4.723931 h 4.007917 L 44.884037,11.04018 c -0.06955,-0.184574 -0.147798,-0.400871 -0.234738,-0.648891 -0.08115,-0.253789 -0.162287,-0.5277655 -0.243431,-0.82193 -0.08115,0.2941645 -0.162287,0.568141 -0.24343,0.82193 -0.07534,0.253788 -0.150696,0.475853 -0.226043,0.666195 z"
       id="path103" />
    <path
       style="font-weight:bold;font-size:17.3458px;font-family:Lato;-inkscape-font-specification:'Lato Bold';stroke-width:0.600001;stroke-miterlimit:0.6"
       d="m 30.347698,15.063307 v 4.862361 H 28.00902 V 15.063307 L 23.427301,7.4150394 h 2.060469 c 0.20286,0 0.362249,0.049031 0.478169,0.1470817 0.121716,0.098052 0.223145,0.2220647 0.304288,0.3720314 l 2.303901,4.1788615 c 0.133308,0.248021 0.249227,0.484505 0.347759,0.709455 0.09853,0.21918 0.188369,0.435478 0.269513,0.648891 0.07534,-0.219181 0.159389,-0.438362 0.252125,-0.657543 0.09853,-0.224949 0.214451,-0.45855 0.347759,-0.700803 l 2.286513,-4.1788615 c 0.06375,-0.1268947 0.159388,-0.2451366 0.2869,-0.3547274 0.127512,-0.1095908 0.289799,-0.1643857 0.486862,-0.1643857 h 2.069164 z"
       id="path102" />
    <path
       style="font-weight:bold;font-size:17.3458px;font-family:Lato;-inkscape-font-specification:'Lato Bold';stroke-width:0.600001;stroke-miterlimit:0.6"
       d="m 14.898517,14.734535 c 0.09853,0.184574 0.188369,0.377799 0.269513,0.579677 0.08694,0.196109 0.170981,0.395102 0.252124,0.59698 0.08115,-0.207646 0.165186,-0.412407 0.252125,-0.614284 0.08694,-0.201878 0.179676,-0.395103 0.278207,-0.579676 l 3.721017,-6.9301612 c 0.04636,-0.08652 0.09273,-0.1557348 0.139104,-0.2076457 0.05217,-0.051914 0.107228,-0.089403 0.165185,-0.1124748 0.06376,-0.023074 0.133306,-0.037489 0.208655,-0.043255 0.07534,-0.00579 0.165185,-0.00868 0.269513,-0.00868 h 1.764875 V 19.925668 h -2.060469 v -8.080863 c 0,-0.149966 0.0029,-0.314352 0.0087,-0.493158 0.0116,-0.178805 0.02608,-0.360494 0.04348,-0.545068 L 16.4113,17.901126 c -0.08694,0.161502 -0.199962,0.288396 -0.339066,0.380683 -0.139103,0.08652 -0.30139,0.129778 -0.486861,0.129778 h -0.321677 c -0.185471,0 -0.347758,-0.04326 -0.486862,-0.129778 -0.139103,-0.09229 -0.252125,-0.219181 -0.339065,-0.380683 l -3.851426,-7.120503 c 0.02319,0.190342 0.03767,0.377799 0.04348,0.562373 0.0116,0.178805 0.01739,0.346075 0.01739,0.501809 v 8.080863 H 8.5866976 V 7.4150394 h 1.7648754 c 0.104328,0 0.194165,0.00289 0.269513,0.00868 0.07534,0.00579 0.142002,0.020201 0.199961,0.043255 0.06376,0.023074 0.121714,0.060563 0.17388,0.1124749 0.05217,0.051914 0.101431,0.1211288 0.147797,0.2076456 l 3.755793,6.9474641 z"
       id="text92" />
  </g>
  <g
     id="g6"
     transform="matrix(0.86175477,0.00728336,-0.00728336,0.86175477,3.4179152,3.4486355)"
     style="display:inline;fill:#1a677d;fill-opacity:1;stroke-width:1.16038">
    <path
       d="m 44.399357,19.685 1.193018,-0.01191 c 0.330133,-0.0032 0.61795,0.07835 0.863457,0.244874 0.245502,0.166551 0.433465,0.406693 0.563895,0.720438 l 4.374963,10.37489 -1.170352,0.01161 c -0.292594,0.0029 -0.580431,-0.08042 -0.863509,-0.250024 -0.283089,-0.169528 -0.489996,-0.426307 -0.620718,-0.770287 z"
       style="font-style:normal;font-variant:normal;font-weight:bold;font-stretch:normal;font-size:72px;line-height:125%;font-family:Lato;-inkscape-font-specification:'Lato Bold';letter-spacing:0px;word-spacing:0px;display:inline;fill:#1a677d;fill-opacity:1;stroke:none;stroke-width:0.177774"
       id="path3044-0-8" />
    <path
       d="m 34.450777,-4.2912177 1.193017,-0.01191 c 0.330136,-0.0032 0.617953,0.07835 0.863459,0.244875 0.2455,0.166551 0.433463,0.406695 0.563894,0.720434 l 4.374961,10.374892 -1.170351,0.011643 C 39.983166,7.0516263 39.695327,6.9682913 39.412247,6.79869 39.129159,6.6291313 38.922251,6.3723548 38.79153,6.028373 Z"
       style="font-style:normal;font-variant:normal;font-weight:bold;font-stretch:normal;font-size:72px;line-height:125%;font-family:Lato;-inkscape-font-specification:'Lato Bold';letter-spacing:0px;word-spacing:0px;display:inline;fill:#1a677d;fill-opacity:1;stroke:none;stroke-width:0.177774"
       id="path3044-9-2-9" />
  </g>
  <path
     style="display:none;opacity:1;fill:#ff00ff;stroke:#000000;stroke-width:0.2;stroke-linejoin:bevel;stroke-miterlimit:0.6;stroke-dasharray:none;stroke-opacity:1;paint-order:markers stroke fill"
     d="M 27.243878,-16.450255 47.715029,35.202713 Z"
     id="path1" />
  <g
     id="g64"
     style="display:inline;fill:#1a677d;fill-opacity:1"
     transform="translate(-5.411325e-7,1.8633526)">
    <path
       style="font-weight:bold;font-size:17.3458px;font-family:Lato;-inkscape-font-specification:'Lato Bold';display:inline;fill:#1a677d;fill-opacity:1;stroke-width:0.600001;stroke-miterlimit:0.6"
       d="m 92.9706,12.810246 c -0.05782,0.09251 -0.11853,0.159004 -0.182131,0.199477 -0.0636,0.03469 -0.144547,0.05204 -0.242841,0.05204 -0.104075,0 -0.216822,-0.02891 -0.338243,-0.08673 -0.115639,-0.05782 -0.251514,-0.121421 -0.407626,-0.190804 -0.156113,-0.07517 -0.335353,-0.141658 -0.53772,-0.199477 -0.196586,-0.05782 -0.430754,-0.08673 -0.702505,-0.08673 -0.422081,0 -0.754543,0.08962 -0.997384,0.26886 -0.242841,0.17924 -0.364261,0.413408 -0.364261,0.702505 0,0.190804 0.06071,0.352698 0.18213,0.485682 0.127203,0.127203 0.291988,0.23995 0.494356,0.338243 0.208149,0.09829 0.442318,0.187913 0.702505,0.26886 0.260187,0.07517 0.526155,0.159003 0.797906,0.251514 0.271751,0.09251 0.53772,0.199477 0.797907,0.320898 0.260187,0.115639 0.491465,0.265969 0.693832,0.45099 0.20815,0.17924 0.372935,0.396063 0.494356,0.650468 0.127202,0.254405 0.190803,0.560848 0.190803,0.919327 0,0.427863 -0.07806,0.823926 -0.234168,1.188188 -0.156112,0.35848 -0.384498,0.670704 -0.685159,0.936673 -0.300661,0.260187 -0.673595,0.465445 -1.118804,0.615776 -0.439427,0.144548 -0.945347,0.216822 -1.517758,0.216822 -0.306442,0 -0.607102,-0.02891 -0.901981,-0.08673 -0.289097,-0.05204 -0.569521,-0.127205 -0.841272,-0.225495 -0.265969,-0.09829 -0.514592,-0.213931 -0.745869,-0.346916 -0.225495,-0.132985 -0.424972,-0.277533 -0.59843,-0.433645 l 0.494355,-0.815253 c 0.0636,-0.09829 0.138765,-0.173458 0.225496,-0.225495 0.08673,-0.05204 0.196585,-0.07806 0.32957,-0.07806 0.132985,0 0.257296,0.03758 0.372935,0.112748 0.12142,0.07517 0.260186,0.156112 0.416299,0.242841 0.156112,0.08673 0.338243,0.167676 0.546392,0.242841 0.213932,0.07517 0.482792,0.112748 0.80658,0.112748 0.254405,0 0.471228,-0.02891 0.650468,-0.08673 0.185021,-0.0636 0.335351,-0.144547 0.45099,-0.242842 0.121421,-0.09829 0.20815,-0.21104 0.260187,-0.338243 0.05782,-0.132984 0.08673,-0.268859 0.08673,-0.407626 0,-0.208149 -0.0636,-0.378716 -0.190803,-0.511701 -0.121421,-0.132985 -0.286206,-0.248623 -0.494356,-0.346916 -0.202367,-0.09829 -0.436536,-0.185022 -0.702505,-0.260187 -0.260187,-0.08095 -0.529046,-0.167676 -0.806579,-0.260187 -0.271751,-0.09251 -0.540611,-0.199477 -0.80658,-0.320897 -0.260187,-0.127203 -0.494355,-0.286206 -0.702505,-0.47701 -0.202367,-0.190804 -0.367152,-0.424972 -0.494355,-0.702505 -0.121421,-0.277533 -0.182131,-0.612885 -0.182131,-1.006056 0,-0.364262 0.07227,-0.711178 0.216822,-1.040748 0.144549,-0.329571 0.355589,-0.615776 0.633122,-0.858617 0.283315,-0.248623 0.633122,-0.445209 1.049421,-0.589758 0.422081,-0.15033 0.907764,-0.225495 1.457047,-0.225495 0.612885,0 1.170842,0.101184 1.67387,0.303551 0.503028,0.202368 0.922218,0.468337 1.257571,0.797907 z"
       transform="scale(1.0024288,0.99757709)"
       id="path9" />
    <path
       style="font-weight:bold;font-size:17.3458px;font-family:Lato;-inkscape-font-specification:'Lato Bold';display:inline;fill:#1a677d;fill-opacity:1;stroke-width:0.600001;stroke-miterlimit:0.6"
       d="m 73.083625,19.974062 v -8.898396 h 1.309608 c 0.277533,0 0.459664,0.130094 0.546393,0.390281 l 0.138766,0.65914 c 0.156112,-0.173458 0.318006,-0.332461 0.485683,-0.477009 0.173458,-0.144549 0.355589,-0.26886 0.546392,-0.372935 0.196586,-0.104075 0.404736,-0.185022 0.624449,-0.242841 0.225495,-0.0636 0.471228,-0.0954 0.737197,-0.0954 0.560847,0 1.020511,0.153221 1.378991,0.459664 0.364261,0.30066 0.636012,0.702504 0.815252,1.205533 0.138767,-0.294879 0.312225,-0.546393 0.520374,-0.754543 0.20815,-0.213931 0.436536,-0.387389 0.685159,-0.520374 0.248623,-0.132984 0.511701,-0.231277 0.789234,-0.294878 0.283315,-0.0636 0.56663,-0.0954 0.849945,-0.0954 0.491464,0 0.928,0.07517 1.309608,0.225495 0.381607,0.150331 0.702504,0.370044 0.962691,0.659141 0.260187,0.289097 0.456773,0.641795 0.589758,1.058094 0.138766,0.416299 0.208149,0.893308 0.208149,1.431028 v 5.663404 h -2.142206 v -5.663404 c 0,-0.566629 -0.124312,-0.991601 -0.372935,-1.274916 -0.248623,-0.289097 -0.612885,-0.433645 -1.092785,-0.433645 -0.219713,0 -0.424972,0.03758 -0.615776,0.112747 -0.185022,0.07517 -0.349807,0.185022 -0.494355,0.329571 -0.138767,0.138766 -0.248624,0.315115 -0.329571,0.529047 -0.08095,0.213931 -0.12142,0.459663 -0.12142,0.737196 v 5.663404 h -2.15088 v -5.663404 c 0,-0.595539 -0.12142,-1.029184 -0.364261,-1.300935 -0.237059,-0.271751 -0.589757,-0.407626 -1.058094,-0.407626 -0.306443,0 -0.595539,0.07806 -0.86729,0.234168 -0.265969,0.150331 -0.514593,0.35848 -0.74587,0.624449 v 6.513348 z"
       transform="scale(1.0024288,0.99757709)"
       id="path7" />
    <path
       style="font-weight:bold;font-size:17.3458px;font-family:Lato;-inkscape-font-specification:'Lato Bold';display:inline;fill:#1a677d;fill-opacity:1;stroke-width:0.600001;stroke-miterlimit:0.6"
       d="m 65.997852,19.974062 v -8.898396 h 1.25757 c 0.219713,0 0.372935,0.04047 0.459664,0.121421 0.08673,0.08095 0.144548,0.219714 0.173458,0.416299 l 0.130093,1.07544 c 0.318007,-0.549284 0.690941,-0.982929 1.118804,-1.300935 0.427863,-0.318007 0.907764,-0.47701 1.439702,-0.47701 0.439427,0 0.803688,0.101184 1.092785,0.303552 l -0.277532,1.604486 c -0.01735,0.104075 -0.05493,0.179241 -0.112748,0.225496 -0.05782,0.04047 -0.135876,0.06071 -0.234168,0.06071 -0.08673,0 -0.205259,-0.02024 -0.355589,-0.06071 -0.150331,-0.04047 -0.349808,-0.06071 -0.598431,-0.06071 -0.445209,0 -0.826816,0.124312 -1.144822,0.372935 -0.318007,0.242841 -0.586867,0.601321 -0.80658,1.07544 v 5.541983 z"
       transform="scale(1.0024288,0.99757709)"
       id="path6" />
    <path
       style="font-weight:bold;font-size:17.3458px;font-family:Lato;-inkscape-font-specification:'Lato Bold';display:inline;fill:#1a677d;fill-opacity:1;stroke-width:0.600001;stroke-miterlimit:0.6"
       d="m 55.954635,19.974062 v -7.285236 l -0.771888,-0.121421 c -0.167676,-0.02891 -0.303551,-0.08673 -0.407626,-0.173458 -0.09829,-0.08673 -0.147439,-0.208149 -0.147439,-0.364262 v -0.875963 h 1.326953 v -0.286205 c 0,-0.543502 0.08962,-1.0465303 0.26886,-1.5090849 0.17924,-0.4683366 0.450991,-0.8730719 0.815253,-1.214206 0.364262,-0.3411341 0.823926,-0.607103 1.378991,-0.7979068 0.555066,-0.1965857 1.211315,-0.2948786 1.968748,-0.2948786 0.242841,0 0.491465,0.014455 0.74587,0.043365 0.254405,0.023128 0.474118,0.063601 0.65914,0.1214206 l -0.06938,1.1101312 c -0.01157,0.1329845 -0.08384,0.2139315 -0.216822,0.2428412 -0.132985,0.023128 -0.29777,0.034692 -0.494356,0.034692 -0.560847,0 -1.032075,0.049146 -1.413682,0.1474393 -0.375828,0.098292 -0.682272,0.2457313 -0.919331,0.442317 -0.231277,0.1908038 -0.398953,0.433645 -0.503028,0.7285236 -0.09829,0.2890974 -0.147439,0.6273404 -0.147439,1.0147294 v 0.216822 h 5.515964 v 8.82034 h -2.142206 v -7.293909 h -3.304375 v 7.293909 z"
       transform="scale(1.0024288,0.99757709)"
       id="path5" />
    <path
       style="font-weight:bold;font-size:17.3458px;font-family:Lato;-inkscape-font-specification:'Lato Bold';display:inline;fill:#1a677d;fill-opacity:1;stroke-width:0.600001;stroke-miterlimit:0.6"
       d="m 49.874931,19.974062 v -7.285236 l -0.771888,-0.121421 c -0.167676,-0.02891 -0.303551,-0.08673 -0.407626,-0.173458 -0.09829,-0.08673 -0.14744,-0.208149 -0.14744,-0.364262 v -0.875963 h 1.326954 v -0.65914 c 0,-0.5088101 0.07517,-0.9655829 0.225496,-1.3703182 0.156112,-0.4047353 0.375825,-0.7487604 0.65914,-1.0320751 0.289097,-0.2833147 0.638904,-0.5001372 1.049421,-0.6504675 0.410517,-0.1503303 0.873072,-0.2254954 1.387664,-0.2254954 0.410517,0 0.792125,0.054928 1.144823,0.1647851 l -0.04337,1.0754396 c -0.01157,0.1676761 -0.08962,0.2717509 -0.234168,0.3122244 -0.144549,0.040473 -0.312225,0.06071 -0.503028,0.06071 -0.254405,0 -0.482792,0.02891 -0.685159,0.086729 -0.196586,0.052037 -0.364262,0.1474392 -0.503029,0.2862057 -0.138766,0.1329845 -0.245732,0.3122244 -0.320897,0.5377198 -0.06938,0.2197135 -0.104075,0.4943556 -0.104075,0.8239256 v 0.589757 h 2.315665 v 1.526431 h -2.246281 v 7.293909 z"
       transform="scale(1.0024288,0.99757709)"
       id="path4" />
    <path
       style="font-weight:bold;font-size:17.3458px;font-family:Lato;-inkscape-font-specification:'Lato Bold';display:inline;fill:#1a677d;fill-opacity:1;stroke-width:0.600001;stroke-miterlimit:0.6"
       d="m 48.322498,19.974062 h -1.803963 c -0.202368,0 -0.370044,-0.04915 -0.503028,-0.147439 -0.127203,-0.104075 -0.219714,-0.231278 -0.277533,-0.381608 l -0.936673,-2.558506 h -5.195068 l -0.936673,2.558506 c -0.04625,0.132985 -0.138764,0.254405 -0.277533,0.364262 -0.132984,0.109857 -0.297769,0.164785 -0.494355,0.164785 H 36.085036 L 41.011243,7.4330483 h 2.385048 z m -8.117834,-4.735404 h 3.998207 L 42.67644,11.066993 c -0.06938,-0.185021 -0.147439,-0.401844 -0.234168,-0.650467 -0.08095,-0.254405 -0.161894,-0.5290472 -0.242841,-0.8239256 -0.08095,0.2948784 -0.161895,0.5695206 -0.242842,0.8239256 -0.07516,0.254405 -0.15033,0.47701 -0.225495,0.667813 z"
       transform="scale(1.0024288,0.99757709)"
       id="path3" />
  </g>
  <path
     style="font-weight:bold;font-size:17.3458px;font-family:Lato;-inkscape-font-specification:'Lato Bold';display:inline;fill:#1a677d;fill-opacity:1;stroke-width:0.600001;stroke-miterlimit:0.6"
     d="m 30.975372,24.228851 c -0.06375,0.149966 -0.147796,0.262441 -0.252125,0.337424 -0.09853,0.08075 -0.252126,0.121127 -0.46078,0.121127 h -1.59969 l 1.669241,-3.555926 -3.607995,-8.219293 h 1.877896 c 0.17388,0 0.307187,0.04037 0.399922,0.121127 0.09274,0.08075 0.162289,0.173038 0.208656,0.276861 l 1.903978,4.602803 c 0.06376,0.149966 0.118816,0.3057 0.165185,0.467202 0.04636,0.161501 0.08694,0.323003 0.121716,0.484506 0.04636,-0.16727 0.09563,-0.328772 0.147797,-0.484506 0.05796,-0.155734 0.118818,-0.314352 0.182574,-0.475854 l 1.790956,-4.594151 c 0.04636,-0.115359 0.121714,-0.21053 0.226044,-0.285513 0.110124,-0.07499 0.231839,-0.112475 0.365147,-0.112475 h 1.721404 z"
     id="path2" />
  <path
     style="font-weight:bold;font-size:17.3458px;font-family:Lato;-inkscape-font-specification:'Lato Bold';display:inline;fill:#1a677d;fill-opacity:1;stroke-width:0.600001;stroke-miterlimit:0.6"
     d="m 18.073523,16.597887 c 0,0.209227 0.188369,0.3778 0.269513,0.579677 0.08694,0.196109 0.170981,0.395103 0.252125,0.59698 0.08115,-0.207645 0.165185,-0.412407 0.252125,-0.614284 0.08694,-0.201877 0.179675,-0.395103 0.278207,-0.579677 L 22.84651,9.6504224 c 0.04636,-0.086519 0.09273,-0.1557339 0.139103,-0.2076452 0.05217,-0.051911 0.107227,-0.089403 0.165185,-0.1124746 0.06375,-0.023072 0.133306,-0.037492 0.208655,-0.04326 0.07535,-0.00577 0.165186,-0.00865 0.269513,-0.00865 h 1.764876 V 21.789019 h -2.060471 v -8.080862 c 0,-0.149966 0.0029,-0.314351 0.0087,-0.493157 0.0116,-0.178806 0.02608,-0.360496 0.04347,-0.545069 l -3.799264,7.094546 c -0.08694,0.161503 -0.19996,0.288397 -0.339064,0.380684 -0.139103,0.08652 -0.30139,0.129778 -0.486862,0.129778 h -0.321699 c -0.185471,0 -0.347758,-0.04325 -0.486862,-0.129778 -0.139104,-0.09229 -0.252125,-0.219181 -0.339064,-0.380684 l -3.851427,-7.120502 c 0.02319,0.190341 0.03767,0.377799 0.04346,0.562373 0.0116,0.178806 0.01739,0.346075 0.01739,0.501809 v 8.080862 H 11.761704 V 9.2783913 h 1.764875 c 0.104328,0 0.194166,0.00288 0.269513,0.00865 0.07535,0.00577 0.142001,0.020186 0.199961,0.04326 0.06375,0.023072 0.121714,0.060564 0.173879,0.1124746 0.05217,0.051911 0.101433,0.1211263 0.147798,0.2076452 z"
     id="text7" />
</svg>
